<svg width="25" height="16" viewBox="0 0 25 16" fill="none" xmlns="http://www.w3.org/2000/svg">
<path fill-rule="evenodd" clip-rule="evenodd" d="M7.91602 0C6.13141 0 4.66602 1.46821 4.66602 3.26686C4.66602 5.0655 6.13136 6.53371 7.91602 6.53371C9.71092 6.53371 11.1788 5.0655 11.1788 3.26686C11.1788 1.46821 9.71092 0 7.91602 0Z" fill="#8E8E8E"/>
<path fill-rule="evenodd" clip-rule="evenodd" d="M7.91824 9.82959C9.46874 9.82959 11.0189 10.0591 12.3011 10.5103V10.5101H12.3016C13.3037 10.8618 14.1381 11.3452 14.6975 11.9168C15.2569 12.4883 15.5536 13.1221 15.5536 13.9079V15.1625H0.291748V13.9079C0.291748 13.0072 0.678171 12.2976 1.40102 11.6739C2.12387 11.0503 3.19067 10.555 4.42549 10.2402C5.5059 9.96476 6.71201 9.82853 7.91796 9.8296L7.91824 9.82959Z" fill="#8E8E8E"/>
<path fill-rule="evenodd" clip-rule="evenodd" d="M16.8542 9.8361C18.0408 9.85027 19.2207 9.9975 20.2742 10.278C21.4783 10.5987 22.5131 11.0928 23.2131 11.709C23.9131 12.3254 24.2868 13.0239 24.2868 13.9077V15.1622H16.7531V13.9077C16.7531 12.7933 16.2863 11.8154 15.5501 11.0632C15.162 10.6666 14.7015 10.3263 14.1887 10.0348C15.0463 9.89265 15.9514 9.82517 16.854 9.83596L16.8542 9.8361Z" fill="#8E8E8E"/>
<path fill-rule="evenodd" clip-rule="evenodd" d="M16.6624 0C14.8778 0 13.4126 1.46821 13.4126 3.26686C13.4126 5.0655 14.8776 6.53371 16.6624 6.53371C18.447 6.53371 19.9122 5.0655 19.9122 3.26686C19.9122 1.46821 18.4472 0 16.6624 0Z" fill="#8E8E8E"/>
</svg>
