<svg width="20" height="19" viewBox="0 0 20 19" fill="none" xmlns="http://www.w3.org/2000/svg">
<path d="M6.44932 11.7774C5.83365 11.3811 4.86577 10.8949 3.81421 10.8955C2.63277 10.8963 1.52897 11.1954 1.11056 11.7659C0.901356 12.0512 0.726793 12.5261 1.08733 12.8234C1.28242 12.9843 1.47005 13.2121 1.64821 13.4815C2.85751 12.3544 4.47816 11.4611 6.44929 11.7774H6.44932Z" fill="#C3C6CD"/>
<path d="M18.6946 11.3578C18.6896 11.322 18.6832 11.2857 18.676 11.2494C18.5372 11.2362 18.3869 11.2233 18.2266 11.2109C16.7461 11.0974 14.4333 11.0536 12.8174 11.6589C12.4202 11.8075 12.0319 12.0755 11.7084 12.401C11.534 12.5764 11.3788 12.7685 11.2515 12.9682C11.1977 13.1994 11.0971 13.4115 10.9593 13.592C10.9572 13.5987 10.9545 13.6056 10.9526 13.6123L10.9462 13.6105C10.6624 13.9714 10.2319 14.202 9.74946 14.202C8.89491 14.202 8.20235 13.4791 8.20235 12.5877C8.20235 12.3973 8.23546 12.2157 8.29347 12.0465C7.57768 12.188 7.05298 12.2865 7.05298 12.2865C4.88507 11.6141 3.15646 12.6372 1.87207 13.8518C2.7098 15.3423 3.28121 17.5972 3.28121 17.5972C5.76705 18.891 14.3662 18.4468 15.1124 17.8332C15.5097 17.5065 15.5126 16.9682 15.5126 16.6997L17.353 12.7826L18.7054 11.9811C18.7055 11.9803 18.7412 11.6896 18.6948 11.3578L18.6946 11.3578Z" fill="#C3C6CD"/>
<path d="M18.9627 9.59614C17.7473 7.82079 17.4835 2.1438 9.44336 4.1646C9.45696 4.37848 9.48084 4.59183 9.52614 4.80238L9.94405 6.78841C12.0386 7.64395 11.2099 11.9851 11.2639 12.2566C11.3579 12.1504 11.4579 12.0491 11.5632 11.953C11.897 11.6489 12.2808 11.401 12.6776 11.2524C12.7551 11.2235 12.8342 11.1962 12.9143 11.1699C13.72 10.906 14.6498 10.779 15.5588 10.7307C16.6605 10.6721 17.7307 10.7285 18.5115 10.7979C18.5783 10.8038 18.6427 10.8098 18.7051 10.816C19.099 10.4166 19.2364 9.99607 18.9628 9.59616L18.9627 9.59614Z" fill="#C3C6CD"/>
<path d="M10.351 10.6076L9.44257 6.29068L9.13351 4.82202C9.09398 4.6384 9.07152 4.45276 9.05624 4.26676C8.98142 3.34935 9.18241 2.41064 9.52189 1.55446C9.4798 1.12924 9.1692 0.804318 8.78464 0.734684C8.70558 0.720219 8.62434 0.712987 8.54052 0.721961C8.04921 0.774997 7.69189 1.23343 7.74272 1.74611C7.33417 2.77643 7.11985 3.92606 7.35435 5.01371L7.79099 7.08868L8.55518 10.7199L8.69931 11.4044C8.97526 11.1375 9.34361 10.973 9.74959 10.973C10.0087 10.973 10.2525 11.0402 10.4671 11.1577L10.351 10.6076Z" fill="#C3C6CD"/>
<path d="M10.8181 12.8262C10.8104 12.8642 10.7968 12.8996 10.7854 12.9361Z" fill="#C3C6CD"/>
<path d="M10.6253 11.9101C10.5522 11.8074 10.4653 11.7158 10.3638 11.6436C10.1886 11.5192 9.97735 11.4462 9.74942 11.4462C9.3781 11.4462 9.05107 11.6402 8.85353 11.9355C8.84211 11.9527 8.83274 11.9709 8.82222 11.9887C8.71864 12.1631 8.65601 12.3669 8.65601 12.5872C8.65601 12.9894 8.85662 13.3414 9.15796 13.5445C9.32867 13.6597 9.53106 13.7283 9.74952 13.7283C10.1194 13.7283 10.4447 13.5356 10.6427 13.2424C10.6838 13.1395 10.731 13.0374 10.7854 12.9364C10.7966 12.8999 10.8103 12.8643 10.8182 12.8264C10.834 12.7493 10.8431 12.6696 10.8431 12.5874C10.8432 12.3325 10.7605 12.0997 10.6253 11.9101L10.6253 11.9101ZM9.74968 12.9746C9.54471 12.9746 9.37849 12.8011 9.37849 12.5872C9.37849 12.3734 9.5447 12.1999 9.74968 12.1999C9.95466 12.1999 10.1209 12.3733 10.1209 12.5872C10.1207 12.801 9.95466 12.9746 9.74968 12.9746Z" fill="#C3C6CD"/>
<path d="M10.7855 12.9359C10.7311 13.0369 10.6838 13.1392 10.6428 13.2419C10.7052 13.1497 10.7513 13.046 10.7855 12.9359Z" fill="#C3C6CD"/>
</svg>
