<svg width="15" height="16" viewBox="0 0 15 16" fill="none" xmlns="http://www.w3.org/2000/svg">
<path d="M10.8612 9.16264L10.8329 9.13435L10.8047 9.16264L8.82929 11.1383C7.5907 11.092 6.43295 10.5877 5.55165 9.70627C4.67091 8.82535 4.16672 7.66835 4.11991 6.4303L6.09638 4.4535L6.12465 4.42521L6.09638 4.39693L2.71152 1.01151L2.68323 0.983222L2.65494 1.01151L0.189487 3.47737L0.177771 3.48909L0.177773 3.50566L0.177802 3.68139C0.178142 5.16145 0.459125 6.60441 1.01298 7.97001C1.5865 9.38412 2.42884 10.6527 3.51648 11.7405C4.6047 12.829 5.87393 13.6718 7.28873 14.2454C8.65427 14.7991 10.0969 15.0798 11.5768 15.0798H11.5793L11.7549 15.0798L11.7714 15.0798L11.7831 15.068L14.2461 12.6046L14.2743 12.5764L14.2461 12.5481L10.8612 9.16264ZM1.10766 3.87182L2.6832 2.296L4.81207 4.42524L3.19987 6.03773L3.18815 6.04944L3.18816 6.06601L3.18818 6.24175C3.18852 7.79834 3.79488 9.26198 4.89536 10.3627C5.99627 11.4638 7.45992 12.0702 9.01679 12.0701H9.01811L9.19371 12.0701L9.21028 12.0701L9.22199 12.0584L10.8329 10.4472L12.9618 12.5764L11.3886 14.1499C10.0948 14.1272 8.83369 13.8702 7.63743 13.3851C6.33844 12.8585 5.17277 12.0843 4.17276 11.0841C3.17334 10.0845 2.39963 8.9194 1.87304 7.62105C1.38813 6.4254 1.1309 5.16508 1.10766 3.87182Z" fill="#F9B233" stroke="black" stroke-width="0.08"/>
</svg>
