<svg width="91" height="38" viewBox="0 0 91 38" fill="none" xmlns="http://www.w3.org/2000/svg">
<path d="M39.8626 0.560062C40.0121 0.777453 40.1748 0.868195 40.3677 0.935317C40.9948 1.15355 41.5699 1.25407 42.3041 1.34418C43.4261 1.48188 44.6344 1.70929 45.7391 1.94906C47.1521 2.25577 48.5388 2.67081 49.915 3.11403C51.1617 3.51554 52.3931 3.9672 53.6025 4.46943C54.7531 4.9472 55.8823 5.48424 56.9926 6.04886C57.9384 6.5298 58.8655 7.04539 59.7765 7.58908C60.7115 8.14705 61.6299 8.73616 62.5268 9.35333C63.5535 10.0599 64.5461 10.8074 65.5352 11.5657C66.1086 12.0053 66.6871 12.4447 67.2302 12.921C67.5968 13.2425 67.5615 13.2937 68.0385 13.6155C68.404 13.8622 68.8504 13.827 69.262 13.6324C69.6737 13.4377 70.3565 13.0331 70.3565 13.0331C70.3565 13.0331 69.5368 12.4216 68.8916 11.9745C68.9034 11.9764 68.9199 11.9842 68.9309 11.9857C69.3409 12.0422 69.8685 11.8896 70.2779 11.8289C70.5265 11.792 70.7848 11.7813 71.0357 11.7953C71.5815 11.8257 72.1159 11.9524 72.6521 12.0585C75.2942 12.5815 77.9349 13.1446 80.5212 13.8956C82.3844 14.4366 84.2286 15.0573 86.016 15.8111C86.6104 16.0617 87.2129 16.3144 87.7447 16.6792C88.2351 17.0155 88.6933 17.413 89.0637 17.8778C89.4135 18.3166 89.6549 18.838 89.8944 19.3452C90.1179 19.8184 90.3521 20.2941 90.4557 20.807C90.617 21.6052 90.5392 22.4347 90.5343 23.2489C90.529 24.1262 90.5027 25.0083 90.4164 25.8813C90.328 26.7766 90.1975 27.5534 90.1582 28.4521C90.15 28.6401 90.1532 28.9472 90.2312 29.1186C90.2898 29.2476 90.3023 29.2743 90.3434 29.4098C90.3805 29.532 90.3208 29.6677 90.2705 29.7851C90.15 30.0661 89.9595 30.3194 89.7429 30.5356C89.6346 30.6437 89.4781 30.6938 89.3668 30.7988C89.2046 30.9521 89.1104 31.1686 88.9515 31.3253C88.6141 31.658 88.2443 31.9697 87.8233 32.1878C87.2281 32.4963 86.558 32.6455 85.9038 32.7927C85.1992 32.9512 84.4739 33.0304 83.7541 33.0896C83.2537 33.1307 82.8289 33.1844 82.2499 33.1288C81.8358 33.121 81.9016 33.1246 81.5258 33.1176C81.8327 32.24 82.0029 31.2936 82.0029 30.3116C82.0029 25.6147 78.1841 21.8095 73.4772 21.8095C68.7703 21.8095 64.9571 25.6147 64.9571 30.3116C64.9571 31.1767 65.0869 32.0118 65.3275 32.7983C65.0583 32.7938 65.1103 32.7976 64.8224 32.7927C46.1197 32.5655 36.463 32.2527 22.2835 32.0422C22.0343 32.0385 21.7939 32.0304 21.5482 32.0254C21.6938 31.4025 21.7728 30.7547 21.7728 30.0875C21.7728 25.3906 17.9595 21.5855 13.2526 21.5855C8.54574 21.5855 4.72689 25.3906 4.72689 30.0875C4.72689 30.3811 4.7427 30.6698 4.7718 30.9557C4.51495 30.9116 4.26732 30.8329 4.03091 30.726C3.53643 30.5024 3.09248 30.1677 2.67264 29.8243C2.21978 29.4538 1.80984 29.0331 1.43222 28.5865C1.19424 28.3051 0.889984 28.0399 0.792374 27.6848C0.669167 27.2365 0.880501 27.3387 0.904625 26.2902C0.94265 24.6374 0.903053 22.9828 1.01688 21.3335C1.06203 20.6796 1.075 19.9351 1.24139 19.3788C1.2998 19.1835 1.48699 18.9923 1.61744 18.8355C1.73764 18.691 1.97372 18.6638 1.99349 18.4771C2.06871 17.7668 2.07671 17.0247 2.11136 16.2983C2.13372 15.8297 2.10686 15.3595 2.14503 14.8925C2.14967 14.9239 2.15794 14.957 2.16749 14.9877C2.2151 15.1409 2.38982 15.2213 2.46497 15.363C2.54478 15.5135 2.58795 15.6824 2.61651 15.8503C2.67218 16.1776 2.67058 16.5155 2.6558 16.8472C2.64035 17.194 2.54805 17.5317 2.52109 17.8778C2.50407 18.0963 2.41491 18.3384 2.50425 18.5387C2.57124 18.6888 2.72808 18.7952 2.8803 18.8579C3.17699 18.9801 3.52163 18.9706 3.84008 18.9307C4.16883 18.8896 4.49876 18.7813 4.78302 18.6115C5.34283 18.2769 5.75556 17.7416 6.21426 17.2785C6.96664 16.5189 7.72919 15.7608 8.37517 14.9093C8.54014 14.6919 8.76067 14.4836 8.80734 14.2148C8.84791 13.9813 8.79881 13.7136 8.66142 13.5203C8.39747 13.149 7.9054 13.0058 7.49397 12.809C7.00719 12.5763 6.49405 12.3778 5.96731 12.2602C5.58595 12.175 5.19064 12.1507 4.79986 12.1481C4.42213 12.1456 4.03499 12.1401 3.6717 12.2434C3.33978 12.3377 2.99564 12.4707 2.75121 12.7138C2.71874 12.7461 2.68797 12.7832 2.66141 12.8202C2.90276 12.2481 3.26453 11.7443 3.62119 11.2352C3.69024 11.21 4.47593 10.9191 4.91212 10.8151C5.22713 10.7401 5.81577 10.7423 5.81577 10.7423C5.81577 10.7423 6.57729 9.64087 7.00005 9.1237C7.51382 8.49519 8.05677 7.89184 8.63896 7.32584C9.27309 6.70935 9.94547 6.12498 10.6539 5.59519C11.3544 5.07139 12.8541 4.16698 12.8541 4.16698L11.6193 3.5565C11.803 3.35375 11.5504 2.82818 11.7428 2.59316C11.8888 2.4149 12.133 2.41487 12.4388 2.40833C13.2668 2.39062 14.0427 2.3459 14.8691 2.29071C15.9282 2.21999 16.9767 2.05385 18.0291 1.91546C19.0723 1.77826 20.1093 1.57633 21.1553 1.46179C23.3192 1.22485 25.4918 1.07881 27.6661 0.974522C30.0479 0.860285 32.439 0.898573 34.8223 0.8233C35.7136 0.795153 36.6035 0.75782 37.494 0.711284C38.285 0.669949 39.071 0.541251 39.8626 0.560062ZM33.6549 2.68277C33.6549 2.68277 31.9107 2.68531 31.0394 2.72197C29.7826 2.77485 28.5261 2.87408 27.2732 2.98521C25.991 3.09895 24.7086 3.21884 23.4341 3.39967C22.5069 3.53124 21.5418 3.69534 20.667 3.88694C20.4574 3.93286 20.1643 4.06501 20.1563 4.279C20.1069 5.5956 20.0988 6.8488 20.0833 8.13236C20.0668 9.50332 20.0665 12.2434 20.0665 12.2434C20.0665 12.2434 24.7214 12.2804 27.0487 12.3218C29.5774 12.3667 34.6315 12.5066 34.6315 12.5066L33.6549 2.68277ZM37.7578 2.70517C37.7578 2.70517 38.3566 6.02009 38.7344 7.66189C39.1322 9.39051 40.0927 12.809 40.0927 12.809C40.0927 12.809 42.8777 12.9279 44.2686 13.0331C46.8456 13.2279 49.4181 13.4923 51.9861 13.7836C52.9541 13.8934 54.7363 14.03 54.7363 14.03C54.7363 14.03 54.7273 13.3252 54.8261 12.9939C54.9254 12.661 55.3144 12.0753 55.3144 12.0753L53.8326 6.12167C53.8326 6.12167 52.1653 5.39845 51.3069 5.10792C49.975 4.65711 48.6117 4.30663 47.2433 3.98216C45.8619 3.65459 44.466 3.36328 43.0618 3.15324C41.9641 2.98904 40.8568 2.90485 39.7503 2.81719C39.0863 2.76458 37.7578 2.70517 37.7578 2.70517ZM17.9 4.59825C17.9 4.59825 16.6801 4.89309 16.0927 5.10792C15.2702 5.4087 14.4576 5.75286 13.7016 6.19448C12.7562 6.74678 11.8704 7.41149 11.0468 8.13236C10.4864 8.62292 9.89875 9.11474 9.50333 9.74539C9.15356 10.3032 9.3326 10.278 9.8457 10.5183C10.9137 11.0185 12.1031 11.2114 13.2526 11.476C14.3522 11.7292 16.581 12.0753 16.581 12.0753L17.9 4.59825ZM54.697 6.49692C55.096 8.12528 55.6697 9.88214 56.0721 11.5096C56.0721 11.5096 56.6928 11.3671 56.9926 11.3976C57.25 11.4238 57.7215 11.5776 58.0646 11.7561C58.3641 11.9119 58.7241 12.1416 58.9851 12.3554C59.2664 12.5858 59.5891 12.9969 59.7204 13.3355C59.9111 13.8272 59.7204 14.7581 59.7204 14.7581C59.7204 14.7581 60.4657 14.8255 60.944 14.8757C61.4196 14.9257 62.3752 14.9877 62.3752 14.9877C62.3752 14.9877 61.9112 13.063 61.5838 12.1313C61.3625 11.5014 60.7924 10.2887 60.7924 10.2887C60.7924 10.2887 60.0931 9.6086 59.7036 9.31413C58.9572 8.74991 58.1444 8.27307 57.3294 7.81311C56.4746 7.33074 54.697 6.49692 54.697 6.49692ZM79.0113 15.4694C78.8781 15.466 78.7488 15.4812 78.6353 15.5478C78.5239 15.6132 78.4398 15.761 78.4501 15.8895C78.4678 16.1117 78.7083 16.2574 78.8654 16.416C79.3862 16.9416 80.0141 17.3452 80.5941 17.805C81.4058 18.4484 82.1831 19.14 83.0413 19.7204C83.4136 19.9723 83.79 20.2285 84.2087 20.3925C84.5799 20.5379 84.9816 20.5983 85.3762 20.6558C86.1104 20.7627 86.8513 20.8171 87.5932 20.807C87.8579 20.8034 88.1616 20.8765 88.3846 20.7342C88.5315 20.6405 88.5374 20.4147 88.6484 20.2805C88.8182 20.0752 89.039 19.9108 89.2546 19.754C89.3728 19.6681 89.6054 19.6738 89.6306 19.53C89.706 19.1005 89.0998 18.8335 88.7999 18.5163C88.5196 18.2197 88.277 17.8407 87.8963 17.6929C87.7209 17.6249 87.5182 17.7361 87.335 17.6929C86.8708 17.5836 86.4941 17.2409 86.0553 17.0544C85.504 16.8201 84.9294 16.6368 84.3603 16.4496C83.7873 16.261 83.2133 16.0605 82.6259 15.9231C82.1058 15.8014 81.5789 15.7259 81.0488 15.6598C80.599 15.6038 80.1434 15.5666 79.6905 15.5478C79.4711 15.5387 79.2334 15.4751 79.0113 15.4694ZM13.2526 22.6497C17.3687 22.6497 20.7063 25.9802 20.7063 30.0875C20.7063 34.1949 17.3687 37.5254 13.2526 37.5254C9.13651 37.5254 5.79893 34.1949 5.79893 30.0875C5.79893 25.9802 9.13651 22.6497 13.2526 22.6497ZM73.4772 22.8737C77.5933 22.8737 80.9309 26.2042 80.9309 30.3116C80.9309 34.4189 77.5933 37.7494 73.4772 37.7494C69.3611 37.7494 66.0291 34.4189 66.0291 30.3116C66.0291 26.2042 69.3611 22.8737 73.4772 22.8737ZM13.2526 24.6771C10.2589 24.6771 7.83073 27.1002 7.83073 30.0875C7.83073 33.0749 10.2589 35.4979 13.2526 35.4979C16.2463 35.4979 18.6689 33.0749 18.6689 30.0875C18.6689 27.1002 16.2463 24.6771 13.2526 24.6771ZM73.4772 24.9012C70.4835 24.9012 68.0609 27.3242 68.0609 30.3116C68.0609 33.2989 70.4835 35.7219 73.4772 35.7219C76.4709 35.7219 78.8991 33.2989 78.8991 30.3116C78.8991 27.3242 76.4709 24.9012 73.4772 24.9012Z" fill="#F9B233"/>
</svg>
