<svg width="18" height="18" viewBox="0 0 18 18" fill="none" xmlns="http://www.w3.org/2000/svg">
<path d="M17.9904 16.0257V5.53652C17.9904 5.09727 17.8158 4.67596 17.5053 4.36546C17.1946 4.05483 16.7734 3.88037 16.3341 3.88037H13.0217V1.67215C13.0217 1.2329 12.8471 0.811594 12.5366 0.500961C12.226 0.190452 11.8047 0.0158691 11.3654 0.0158691H6.94892C6.50967 0.0158691 6.08836 0.190442 5.77772 0.500961C5.46722 0.811598 5.29263 1.23287 5.29263 1.67215V3.88037H1.98026C1.54101 3.88037 1.1197 4.05482 0.809066 4.36546C0.498558 4.67597 0.323975 5.09727 0.323975 5.53652V16.0257C0.323975 16.465 0.498548 16.8863 0.809066 17.1969C1.1197 17.5074 1.54098 17.682 1.98026 17.682H16.3339C16.7731 17.682 17.1944 17.5074 17.5051 17.1969C17.8156 16.8863 17.9902 16.465 17.9902 16.0257H17.9904ZM10.8135 3.88034H7.50118V2.22409H10.8135V3.88034Z" fill="#8E8E8E"/>
</svg>
