<svg width="26" height="26" viewBox="0 0 26 26" fill="none" xmlns="http://www.w3.org/2000/svg">
<path d="M4.66077 15.0491C5.40274 18.1809 7.89487 20.6748 11.0099 21.4026L11.1628 21.4383V22.6482L10.9232 22.5964C7.19271 21.7932 4.26585 18.8646 3.46734 15.1362L3.41588 14.897H4.62485L4.66077 15.0491Z" fill="black"/>
<path d="M22.5249 10.9829L22.5769 11.2225H21.3711L21.3353 11.0702C20.5974 7.94103 18.1068 5.44886 14.9904 4.72054L14.8376 4.68486L14.8374 3.47473L15.0768 3.52656C18.793 4.32618 21.7163 7.25289 22.525 10.9829L22.5249 10.9829Z" fill="black"/>
<path d="M4.65725 11.07L4.62138 11.2227H3.41597L3.46761 10.9834C4.26742 7.26329 7.19394 4.33956 10.9234 3.5348L11.1631 3.48315V4.68463L11.0108 4.72087C7.88277 5.46246 5.38848 7.95463 4.65727 11.07L4.65725 11.07Z" fill="black"/>
<path d="M21.3389 15.0495L21.3746 14.8969H22.5843L22.5327 15.1361C21.7334 18.854 18.8069 21.779 15.0768 22.5886L14.837 22.6406V21.435L14.9895 21.3991C18.1181 20.6611 20.6103 18.169 21.3387 15.0495L21.3389 15.0495Z" fill="black"/>
<path d="M13 6.80665C12.5168 6.80665 12.1251 6.41473 12.1251 5.93174V1.26609C12.1251 0.783085 12.5169 0.390991 13 0.390991C13.4832 0.390991 13.8749 0.783095 13.8749 1.2659V5.93155C13.8748 6.41475 13.4832 6.80665 13 6.80665Z" fill="black"/>
<path d="M13 19.3137C13.4832 19.3137 13.8749 19.7056 13.8749 20.1886V24.8543C13.8748 25.3373 13.4832 25.7292 13 25.7292C12.5168 25.7292 12.1251 25.3373 12.1251 24.8545V20.1888C12.1251 19.7056 12.5169 19.3137 13 19.3137Z" fill="black"/>
<path d="M1.20588 12.1853H5.87154C6.35473 12.1853 6.74625 12.5772 6.74625 13.06C6.74625 13.543 6.35452 13.9349 5.87154 13.9349H1.20588C0.722683 13.9349 0.330976 13.543 0.330976 13.06C0.330976 12.5772 0.722703 12.1853 1.20588 12.1853Z" fill="black"/>
<path d="M19.2536 13.0601C19.2536 12.5773 19.6453 12.1854 20.1285 12.1854H24.7941C25.2773 12.1854 25.6691 12.5773 25.6691 13.0601C25.6691 13.5431 25.2773 13.935 24.7941 13.935H20.1285C19.6453 13.935 19.2536 13.5431 19.2536 13.0601Z" fill="black"/>
<path d="M16.2593 11.5554C16.2593 12.8262 14.636 15.7914 13.6819 17.4306C13.3771 17.9534 12.6248 17.9534 12.3159 17.4306C11.3617 15.7916 9.74263 12.8262 9.74263 11.5554C9.74263 9.75396 11.1995 8.29712 13.001 8.29712C14.7985 8.29712 16.2593 9.75401 16.2593 11.5554ZM11.5441 11.5476C11.5441 12.3553 12.1974 13.0046 13.001 13.0046C13.8087 13.0046 14.4539 12.3553 14.4539 11.5476C14.4539 10.7478 13.8087 10.0946 13.001 10.0946C12.1974 10.0946 11.5441 10.7478 11.5441 11.5476Z" fill="black"/>
</svg>
