<svg width="13" height="72" viewBox="0 0 13 72" fill="none" xmlns="http://www.w3.org/2000/svg">
<path d="M1.59416 4.13319C3.01255 1.31183 6.4506 0.170954 9.27196 1.5894C12.0933 3.00779 13.188 6.56918 11.8158 9.2672C11.1682 10.5468 8.47021 13.877 7.28308 15.3416C6.99012 15.7117 6.4351 15.7117 6.12678 15.3416C4.93963 13.877 2.27246 10.5468 1.57869 9.2672C0.715457 7.69472 0.746195 5.81368 1.59416 4.13319ZM6.69728 9.69883C8.34698 9.69883 9.67281 8.35756 9.67281 6.7233C9.67281 5.07359 8.34693 3.74776 6.69728 3.74776C5.04757 3.74776 3.72174 5.08904 3.72174 6.7233C3.70637 8.3575 5.04763 9.69883 6.69728 9.69883Z" fill="#8E8E8E"/>
<path d="M7.12681 61.0281H6.22271V61.9322H7.12681V61.0281Z" fill="#8E8E8E"/>
<path d="M8.93672 61.0281H8.03262V61.9322H8.93672V61.0281Z" fill="#8E8E8E"/>
<path d="M5.31873 61.0281H4.41462V61.9322H5.31873V61.0281Z" fill="#8E8E8E"/>
<path d="M8.03268 61.9339H7.12858V62.838H8.03268V61.9339Z" fill="#8E8E8E"/>
<path d="M6.22276 61.9339H5.31866V62.838H6.22276V61.9339Z" fill="#8E8E8E"/>
<path d="M6.67586 58.0137C7.71555 58.0137 8.7126 58.4268 9.44772 59.1619C10.183 59.897 10.5959 60.8941 10.5959 61.9338C10.5959 62.9734 10.183 63.9705 9.44772 64.7056C8.7126 65.4409 7.71552 65.8538 6.67586 65.8538C5.6362 65.8538 4.63912 65.4409 3.904 64.7056C3.16888 63.9705 2.7558 62.9734 2.7558 61.9338C2.75676 60.8944 3.17008 59.8978 3.90498 59.1629C4.63998 58.428 5.63657 58.0147 6.67589 58.0137L6.67586 58.0137ZM6.67586 64.9479V64.9481C7.47559 64.9466 8.24195 64.6277 8.80656 64.0615C9.37116 63.4951 9.6878 62.7278 9.6867 61.9281C9.68562 61.1284 9.36693 60.3619 8.80092 59.7971C8.23478 59.2322 7.46759 58.9154 6.66783 58.9161C5.8682 58.9169 5.10149 59.2352 4.53655 59.801C3.97149 60.367 3.65436 61.1342 3.65473 61.9338C3.657 62.7333 3.97639 63.4991 4.5429 64.0633C5.10928 64.6275 5.87647 64.9438 6.67586 64.9429V64.9479Z" fill="#8E8E8E"/>
<path d="M6.67586 56.2038C8.0189 56.2039 9.3192 56.6758 10.3496 57.537C11.3802 58.3982 12.0755 59.594 12.3141 60.9158C12.5527 62.2374 12.3195 63.6008 11.6552 64.7681C10.9909 65.9354 9.93773 66.8322 8.67964 67.302L6.6758 71.6338L4.67028 67.302C3.41197 66.8322 2.35877 65.9351 1.69448 64.7678C1.03019 63.6004 0.797091 62.2368 1.03595 60.9148C1.27481 59.593 1.97044 58.3972 3.00125 57.5361C4.03206 56.6749 5.33264 56.2034 6.67592 56.2037L6.67586 56.2038ZM5.14386 66.5091L5.32911 66.5709L6.67586 69.4873L8.0208 66.5709L8.20604 66.5091H8.20616C9.66647 66.0206 10.8059 64.8645 11.2733 63.3972C11.7406 61.9299 11.4798 60.3279 10.571 59.0847C9.66237 57.8415 8.21499 57.1067 6.67515 57.1067C5.13531 57.1067 3.68786 57.8415 2.77898 59.0847C1.87035 60.3278 1.60946 61.9299 2.07677 63.3972C2.54408 64.8645 3.68355 66.0206 5.14395 66.5091H5.14386Z" fill="#8E8E8E"/>
<circle cx="6.7214" cy="20.8542" r="1.1246" fill="#D9D9D9"/>
<circle cx="6.7214" cy="24.1253" r="1.1246" fill="#D9D9D9"/>
<circle cx="6.7214" cy="27.3964" r="1.1246" fill="#D9D9D9"/>
<circle cx="6.7214" cy="30.6676" r="1.1246" fill="#D9D9D9"/>
<circle cx="6.7214" cy="33.9387" r="1.1246" fill="#D9D9D9"/>
<circle cx="6.7214" cy="37.2098" r="1.1246" fill="#D9D9D9"/>
<circle cx="6.7214" cy="40.4809" r="1.1246" fill="#D9D9D9"/>
<circle cx="6.7214" cy="43.752" r="1.1246" fill="#D9D9D9"/>
<circle cx="6.7214" cy="47.0232" r="1.1246" fill="#D9D9D9"/>
<path d="M3.93246 49.8849L6.59024 53.0538L9.04354 49.8849" stroke="#BFBDBD" stroke-linecap="round"/>
</svg>
