<svg width="64" height="65" viewBox="0 0 64 65" fill="none" xmlns="http://www.w3.org/2000/svg">
<g opacity="0.06">
<rect y="0.413086" width="64" height="64" rx="16" fill="#F9B233"/>
</g>
<path fill-rule="evenodd" clip-rule="evenodd" d="M48.933 28.1957V43.2465C48.933 46.3393 46.4258 48.8465 43.333 48.8465H20.933C17.8402 48.8465 15.333 46.3393 15.333 43.2465V28.1957C15.333 27.4145 15.7161 26.6829 16.3585 26.2359L20.4482 23.3898C20.8108 23.1374 21.3094 23.2268 21.5618 23.5894C21.8142 23.9521 21.7248 24.4507 21.3621 24.703L17.2724 27.5492C17.0628 27.6951 16.9371 27.931 16.9331 28.1832C17.1833 28.0948 17.4525 28.0467 17.733 28.0467C18.161 28.0467 18.5812 28.1612 18.9501 28.3782L32.133 36.135L45.3159 28.3782C45.9513 28.0044 46.6882 27.9564 47.3329 28.1839C47.3291 27.9314 47.2034 27.6952 46.9936 27.5492L43.021 24.7845C42.6583 24.5322 42.5689 24.0336 42.8213 23.6709C43.0737 23.3083 43.5723 23.2189 43.9349 23.4712L47.9075 26.2359C48.5499 26.6829 48.933 27.4145 48.933 28.1957Z" fill="#F9B233"/>
<path fill-rule="evenodd" clip-rule="evenodd" d="M20.333 27.7463V19.7463C20.333 17.5372 22.1239 15.7463 24.333 15.7463H40.333C42.5421 15.7463 44.333 17.5372 44.333 19.7463V27.7463L32.333 34.9463L20.333 27.7463ZM27.5334 23.7464H37.1334C37.5752 23.7464 37.9334 23.3882 37.9334 22.9464C37.9334 22.5045 37.5752 22.1464 37.1334 22.1464H27.5334C27.0916 22.1464 26.7334 22.5045 26.7334 22.9464C26.7334 23.3882 27.0916 23.7464 27.5334 23.7464ZM37.1334 28.5464H27.5334C27.0916 28.5464 26.7334 28.1882 26.7334 27.7464C26.7334 27.3045 27.0916 26.9464 27.5334 26.9464H37.1334C37.5752 26.9464 37.9334 27.3045 37.9334 27.7464C37.9334 28.1882 37.5752 28.5464 37.1334 28.5464Z" fill="#F9B233" fill-opacity="0.13"/>
</svg>
