<svg width="15" height="15" viewBox="0 0 15 15" fill="none" xmlns="http://www.w3.org/2000/svg">
<g clip-path="url(#clip0_2_156)">
<path d="M13.4998 2.37317H0.935738C0.54084 2.37317 0.217773 2.69624 0.217773 3.09111V10.9886C0.217773 11.3834 0.54084 11.7065 0.935738 11.7065H13.4998C13.8947 11.7065 14.2178 11.3835 14.2178 10.9886V3.09111C14.2178 2.69624 13.8947 2.37317 13.4998 2.37317ZM13.2304 2.91159L7.63077 7.11165C7.53009 7.18827 7.37555 7.2362 7.21775 7.23549C7.05997 7.2362 6.90545 7.18827 6.80475 7.11165L1.20513 2.91159H13.2304ZM10.2393 7.38878L13.2905 11.158C13.2936 11.1618 13.2974 11.1647 13.3006 11.1681H1.13494C1.13816 11.1645 1.14194 11.1618 1.145 11.158L4.19629 7.38878C4.28978 7.2732 4.27206 7.10375 4.15626 7.01004C4.04068 6.91655 3.87123 6.93427 3.77771 7.04988L0.756227 10.7823V3.24814L6.48184 7.54237C6.69707 7.70266 6.95891 7.7732 7.21772 7.77392C7.47617 7.77337 7.73823 7.70282 7.95359 7.54237L13.6792 3.24814V10.7823L10.6578 7.04988C10.5643 6.9343 10.3947 6.91652 10.2793 7.01004C10.1635 7.10353 10.1457 7.2732 10.2393 7.38878Z" fill="#F9B233"/>
</g>
<defs>
<clipPath id="clip0_2_156">
<rect width="14" height="14" fill="white" transform="translate(0.217773 0.0397949)"/>
</clipPath>
</defs>
</svg>
