<svg width="23" height="23" viewBox="0 0 23 23" fill="none" xmlns="http://www.w3.org/2000/svg">
<g clip-path="url(#clip0_2_123)">
<path d="M15.5625 0.0397949H7.3125C3.51613 0.0397949 0.4375 3.11842 0.4375 6.91479V15.1648C0.4375 18.9612 3.51613 22.0398 7.3125 22.0398H15.5625C19.3589 22.0398 22.4375 18.9612 22.4375 15.1648V6.91479C22.4375 3.11842 19.3589 0.0397949 15.5625 0.0397949ZM20.375 15.1648C20.375 17.8185 18.2162 19.9773 15.5625 19.9773H7.3125C4.65875 19.9773 2.5 17.8185 2.5 15.1648V6.91479C2.5 4.26104 4.65875 2.10229 7.3125 2.10229H15.5625C18.2162 2.10229 20.375 4.26104 20.375 6.91479V15.1648Z" fill="white"/>
<path d="M11.4375 5.53979C8.40012 5.53979 5.9375 8.00242 5.9375 11.0398C5.9375 14.0772 8.40012 16.5398 11.4375 16.5398C14.4749 16.5398 16.9375 14.0772 16.9375 11.0398C16.9375 8.00242 14.4749 5.53979 11.4375 5.53979ZM11.4375 14.4773C9.54275 14.4773 8 12.9345 8 11.0398C8 9.14367 9.54275 7.60229 11.4375 7.60229C13.3323 7.60229 14.875 9.14367 14.875 11.0398C14.875 12.9345 13.3323 14.4773 11.4375 14.4773Z" fill="white"/>
<path d="M17.3501 5.85991C17.7548 5.85991 18.0829 5.53179 18.0829 5.12704C18.0829 4.72228 17.7548 4.39417 17.3501 4.39417C16.9453 4.39417 16.6172 4.72228 16.6172 5.12704C16.6172 5.53179 16.9453 5.85991 17.3501 5.85991Z" fill="white"/>
</g>
<defs>
<clipPath id="clip0_2_123">
<rect width="22" height="22" fill="white" transform="translate(0.4375 0.0397949)"/>
</clipPath>
</defs>
</svg>
