<svg width="8" height="14" viewBox="0 0 8 14" fill="none" xmlns="http://www.w3.org/2000/svg">
<path fill-rule="evenodd" clip-rule="evenodd" d="M0.208336 6.66071L5.99527 0.873882C6.12911 0.739932 6.30778 0.666138 6.49829 0.666138C6.68881 0.666138 6.86748 0.739932 7.00132 0.873882L7.42749 1.29994C7.7048 1.57757 7.7048 2.02879 7.42749 2.306L2.56806 7.16543L7.43288 12.0302C7.56673 12.1642 7.64062 12.3428 7.64062 12.5332C7.64062 12.7238 7.56673 12.9023 7.43288 13.0364L7.00671 13.4624C6.87276 13.5963 6.6942 13.6701 6.50369 13.6701C6.31317 13.6701 6.1345 13.5963 6.00066 13.4624L0.208336 7.67025C0.074174 7.53588 0.000484847 7.35647 0.000908852 7.16574C0.000486375 6.97428 0.074174 6.79497 0.208336 6.66071V6.66071Z" fill="black"/>
</svg>
