<svg width="13" height="16" viewBox="0 0 13 16" fill="none" xmlns="http://www.w3.org/2000/svg">
<path d="M1.22139 3.89394C2.63978 1.07257 6.07783 -0.0683042 8.89919 1.35014C11.7206 2.76853 12.8152 6.32992 11.443 9.02795C10.7955 10.3076 8.09744 13.6377 6.91031 15.1024C6.61735 15.4724 6.06233 15.4724 5.75401 15.1024C4.56685 13.6377 1.89969 10.3076 1.20591 9.02795C0.342685 7.45547 0.373436 5.57448 1.2214 3.89399L1.22139 3.89394ZM6.32451 9.45958C7.97421 9.45958 9.30004 8.1183 9.30004 6.48404C9.30004 4.83434 7.97415 3.5085 6.32451 3.5085C4.6748 3.5085 3.34897 4.84978 3.34897 6.48404C3.33359 8.11824 4.67486 9.45958 6.32451 9.45958Z" fill="#8E8E8E"/>
</svg>
