<svg width="15" height="15" viewBox="0 0 15 15" fill="none" xmlns="http://www.w3.org/2000/svg">
<g clip-path="url(#clip0_2_162)">
<path d="M9.63639 5.04241C9.63639 6.42332 8.51141 7.54366 7.12368 7.54366C5.73575 7.54366 4.61096 6.42332 4.61096 5.04241C4.61096 3.66109 5.73594 2.54115 7.12368 2.54115C8.5117 2.54105 9.63639 3.661 9.63639 5.04241ZM12.2434 5.04241C12.2434 2.27949 9.99357 0.0397949 7.21791 0.0397949C4.44245 0.0397949 2.19238 2.27949 2.19238 5.04241C2.19238 6.25718 2.6278 7.371 3.35134 8.23738L7.22226 13.7969L11.1498 8.15628C11.2908 7.98056 11.42 7.79535 11.5366 7.60066L11.5763 7.54396H11.5698C11.9975 6.80767 12.2434 5.95403 12.2434 5.04241Z" fill="#F9B233"/>
</g>
<defs>
<clipPath id="clip0_2_162">
<rect width="14" height="14" fill="white" transform="translate(0.217773 0.0397949)"/>
</clipPath>
</defs>
</svg>
