<svg width="13" height="17" viewBox="0 0 13 17" fill="none" xmlns="http://www.w3.org/2000/svg">
<path d="M6.75391 5.5647H5.84981V6.4688H6.75391V5.5647Z" fill="#8E8E8E"/>
<path d="M8.56396 5.5647H7.65986V6.4688H8.56396V5.5647Z" fill="#8E8E8E"/>
<path d="M4.94604 5.5647H4.04194V6.4688H4.94604V5.5647Z" fill="#8E8E8E"/>
<path d="M7.65991 6.47058H6.75581V7.37468H7.65991V6.47058Z" fill="#8E8E8E"/>
<path d="M5.8501 6.47058H4.946V7.37468H5.8501V6.47058Z" fill="#8E8E8E"/>
<path d="M6.30309 2.55032C7.34278 2.55032 8.33983 2.96341 9.07494 3.69852C9.81018 4.43364 10.2231 5.43072 10.2231 6.47038C10.2231 7.51004 9.81018 8.50712 9.07494 9.24224C8.33983 9.97748 7.34275 10.3904 6.30309 10.3904C5.26343 10.3904 4.26635 9.97748 3.53123 9.24224C2.79611 8.50712 2.38303 7.51004 2.38303 6.47038C2.38399 5.43106 2.79731 4.43447 3.53221 3.69947C4.26721 2.9646 5.26379 2.55127 6.30312 2.55029L6.30309 2.55032ZM6.30309 9.48456V9.48468C7.10281 9.48325 7.86918 9.16433 8.43378 8.59807C8.99839 8.03169 9.31503 7.26438 9.31393 6.46474C9.31285 5.66501 8.99416 4.89853 8.42815 4.33371C7.86201 3.76886 7.09482 3.452 6.29506 3.45271C5.49542 3.45354 4.72872 3.77186 4.16378 4.33766C3.59872 4.90358 3.28159 5.67077 3.28195 6.47038C3.28423 7.26989 3.60362 8.03577 4.17012 8.59988C4.7365 9.16412 5.5037 9.48039 6.30309 9.47956V9.48456Z" fill="#8E8E8E"/>
<path d="M6.30307 0.740479C7.64611 0.740599 8.94642 1.21244 9.97683 2.07372C11.0074 2.93484 11.7027 4.1307 11.9413 5.45245C12.1799 6.77408 11.9467 8.13746 11.2824 9.30481C10.6181 10.4721 9.56494 11.3688 8.30685 11.8387L6.30301 16.1705L4.29749 11.8387C3.03919 11.3688 1.98598 10.4718 1.3217 9.30444C0.657406 8.13709 0.424303 6.77347 0.663165 5.45147C0.902023 4.12972 1.59766 2.93389 2.62846 2.07273C3.65927 1.21162 4.95985 0.740111 6.30313 0.740357L6.30307 0.740479ZM4.77108 11.0458L4.95632 11.1075L6.30307 14.024L7.64801 11.1075L7.83326 11.0458H7.83338C9.29369 10.5573 10.4332 9.40118 10.9006 7.93389C11.3679 6.46662 11.107 4.86457 10.1982 3.6214C9.28958 2.37817 7.8422 1.64342 6.30236 1.64342C4.76252 1.64342 3.31508 2.37817 2.4062 3.6214C1.49756 4.8645 1.23668 6.46662 1.70398 7.93389C2.17129 9.40115 3.31076 10.5573 4.77116 11.0458H4.77108Z" fill="#8E8E8E"/>
</svg>
