<svg width="212" height="68" viewBox="0 0 212 68" fill="none" xmlns="http://www.w3.org/2000/svg">
<path d="M67.3246 29.248V31.96H62.8606V46H59.5006V31.96H55.0366V29.248H67.3246ZM68.9121 39.304C68.9121 37.96 69.1761 36.768 69.7041 35.728C70.2481 34.688 70.9761 33.888 71.8881 33.328C72.8161 32.768 73.8481 32.488 74.9841 32.488C75.9761 32.488 76.8401 32.688 77.5761 33.088C78.3281 33.488 78.9281 33.992 79.3761 34.6V32.704H82.7601V46H79.3761V44.056C78.9441 44.68 78.3441 45.2 77.5761 45.616C76.8241 46.016 75.9521 46.216 74.9601 46.216C73.8401 46.216 72.8161 45.928 71.8881 45.352C70.9761 44.776 70.2481 43.968 69.7041 42.928C69.1761 41.872 68.9121 40.664 68.9121 39.304ZM79.3761 39.352C79.3761 38.536 79.2161 37.84 78.8961 37.264C78.5761 36.672 78.1441 36.224 77.6001 35.92C77.0561 35.6 76.4721 35.44 75.8481 35.44C75.2241 35.44 74.6481 35.592 74.1201 35.896C73.5921 36.2 73.1601 36.648 72.8241 37.24C72.5041 37.816 72.3441 38.504 72.3441 39.304C72.3441 40.104 72.5041 40.808 72.8241 41.416C73.1601 42.008 73.5921 42.464 74.1201 42.784C74.6641 43.104 75.2401 43.264 75.8481 43.264C76.4721 43.264 77.0561 43.112 77.6001 42.808C78.1441 42.488 78.5761 42.04 78.8961 41.464C79.2161 40.872 79.3761 40.168 79.3761 39.352ZM93.3857 46L90.6497 41.872L88.2257 46H84.6257L88.9697 39.328L84.5777 32.704H88.3697L91.0817 36.808L93.5297 32.704H97.1297L92.7617 39.328L97.1777 46H93.3857ZM100.707 31.12C100.115 31.12 99.6187 30.936 99.2187 30.568C98.8347 30.184 98.6427 29.712 98.6427 29.152C98.6427 28.592 98.8347 28.128 99.2187 27.76C99.6187 27.376 100.115 27.184 100.707 27.184C101.299 27.184 101.787 27.376 102.171 27.76C102.571 28.128 102.771 28.592 102.771 29.152C102.771 29.712 102.571 30.184 102.171 30.568C101.787 30.936 101.299 31.12 100.707 31.12ZM102.363 32.704V46H99.0027V32.704H102.363ZM133.793 29.248L129.113 46H125.153L122.009 34.072L118.721 46L114.785 46.024L110.273 29.248H113.873L116.825 42.256L120.233 29.248H123.977L127.193 42.184L130.169 29.248H133.793ZM148.347 39.064C148.347 39.544 148.315 39.976 148.251 40.36H138.531C138.611 41.32 138.947 42.072 139.539 42.616C140.131 43.16 140.859 43.432 141.723 43.432C142.971 43.432 143.859 42.896 144.387 41.824H148.011C147.627 43.104 146.891 44.16 145.803 44.992C144.715 45.808 143.379 46.216 141.795 46.216C140.515 46.216 139.363 45.936 138.339 45.376C137.331 44.8 136.539 43.992 135.963 42.952C135.403 41.912 135.123 40.712 135.123 39.352C135.123 37.976 135.403 36.768 135.963 35.728C136.523 34.688 137.307 33.888 138.315 33.328C139.323 32.768 140.483 32.488 141.795 32.488C143.059 32.488 144.187 32.76 145.179 33.304C146.187 33.848 146.963 34.624 147.507 35.632C148.067 36.624 148.347 37.768 148.347 39.064ZM144.867 38.104C144.851 37.24 144.539 36.552 143.931 36.04C143.323 35.512 142.579 35.248 141.699 35.248C140.867 35.248 140.163 35.504 139.587 36.016C139.027 36.512 138.683 37.208 138.555 38.104H144.867ZM154.16 34.648C154.592 34.008 155.184 33.488 155.936 33.088C156.704 32.688 157.576 32.488 158.552 32.488C159.688 32.488 160.712 32.768 161.624 33.328C162.552 33.888 163.28 34.688 163.808 35.728C164.352 36.752 164.624 37.944 164.624 39.304C164.624 40.664 164.352 41.872 163.808 42.928C163.28 43.968 162.552 44.776 161.624 45.352C160.712 45.928 159.688 46.216 158.552 46.216C157.56 46.216 156.688 46.024 155.936 45.64C155.2 45.24 154.608 44.728 154.16 44.104V46H150.8V28.24H154.16V34.648ZM161.192 39.304C161.192 38.504 161.024 37.816 160.688 37.24C160.368 36.648 159.936 36.2 159.392 35.896C158.864 35.592 158.288 35.44 157.664 35.44C157.056 35.44 156.48 35.6 155.936 35.92C155.408 36.224 154.976 36.672 154.64 37.264C154.32 37.856 154.16 38.552 154.16 39.352C154.16 40.152 154.32 40.848 154.64 41.44C154.976 42.032 155.408 42.488 155.936 42.808C156.48 43.112 157.056 43.264 157.664 43.264C158.288 43.264 158.864 43.104 159.392 42.784C159.936 42.464 160.368 42.008 160.688 41.416C161.024 40.824 161.192 40.12 161.192 39.304ZM172.153 46.216C171.065 46.216 170.089 46.024 169.225 45.64C168.361 45.24 167.673 44.704 167.161 44.032C166.665 43.36 166.393 42.616 166.345 41.8H169.729C169.793 42.312 170.041 42.736 170.473 43.072C170.921 43.408 171.473 43.576 172.129 43.576C172.769 43.576 173.265 43.448 173.617 43.192C173.985 42.936 174.169 42.608 174.169 42.208C174.169 41.776 173.945 41.456 173.497 41.248C173.065 41.024 172.369 40.784 171.409 40.528C170.417 40.288 169.601 40.04 168.961 39.784C168.337 39.528 167.793 39.136 167.329 38.608C166.881 38.08 166.657 37.368 166.657 36.472C166.657 35.736 166.865 35.064 167.281 34.456C167.713 33.848 168.321 33.368 169.105 33.016C169.905 32.664 170.841 32.488 171.913 32.488C173.497 32.488 174.761 32.888 175.705 33.688C176.649 34.472 177.169 35.536 177.265 36.88H174.049C174.001 36.352 173.777 35.936 173.377 35.632C172.993 35.312 172.473 35.152 171.817 35.152C171.209 35.152 170.737 35.264 170.401 35.488C170.081 35.712 169.921 36.024 169.921 36.424C169.921 36.872 170.145 37.216 170.593 37.456C171.041 37.68 171.737 37.912 172.681 38.152C173.641 38.392 174.433 38.64 175.057 38.896C175.681 39.152 176.217 39.552 176.665 40.096C177.129 40.624 177.369 41.328 177.385 42.208C177.385 42.976 177.169 43.664 176.737 44.272C176.321 44.88 175.713 45.36 174.913 45.712C174.129 46.048 173.209 46.216 172.153 46.216ZM181.847 31.12C181.255 31.12 180.759 30.936 180.359 30.568C179.975 30.184 179.783 29.712 179.783 29.152C179.783 28.592 179.975 28.128 180.359 27.76C180.759 27.376 181.255 27.184 181.847 27.184C182.439 27.184 182.927 27.376 183.311 27.76C183.711 28.128 183.911 28.592 183.911 29.152C183.911 29.712 183.711 30.184 183.311 30.568C182.927 30.936 182.439 31.12 181.847 31.12ZM183.503 32.704V46H180.143V32.704H183.503ZM190.735 35.464V41.896C190.735 42.344 190.839 42.672 191.047 42.88C191.271 43.072 191.639 43.168 192.151 43.168H193.711V46H191.599C188.767 46 187.351 44.624 187.351 41.872V35.464H185.767V32.704H187.351V29.416H190.735V32.704H193.711V35.464H190.735ZM208.488 39.064C208.488 39.544 208.456 39.976 208.392 40.36H198.672C198.752 41.32 199.088 42.072 199.68 42.616C200.272 43.16 201 43.432 201.864 43.432C203.112 43.432 204 42.896 204.528 41.824H208.152C207.768 43.104 207.032 44.16 205.944 44.992C204.856 45.808 203.52 46.216 201.936 46.216C200.656 46.216 199.504 45.936 198.48 45.376C197.472 44.8 196.68 43.992 196.104 42.952C195.544 41.912 195.264 40.712 195.264 39.352C195.264 37.976 195.544 36.768 196.104 35.728C196.664 34.688 197.448 33.888 198.456 33.328C199.464 32.768 200.624 32.488 201.936 32.488C203.2 32.488 204.328 32.76 205.32 33.304C206.328 33.848 207.104 34.624 207.648 35.632C208.208 36.624 208.488 37.768 208.488 39.064ZM205.008 38.104C204.992 37.24 204.68 36.552 204.072 36.04C203.464 35.512 202.72 35.248 201.84 35.248C201.008 35.248 200.304 35.504 199.728 36.016C199.168 36.512 198.824 37.208 198.696 38.104H205.008Z" fill="#272727"/>
<path fill-rule="evenodd" clip-rule="evenodd" d="M19.4915 55.7402L35.9841 33.2504H35.9835C37.8576 30.252 38.9819 26.6537 38.9824 22.7554C38.9824 11.9604 30.2862 3.26416 19.4912 3.26416C8.69621 3.26416 0 11.9601 0 22.7554C0 26.6532 1.12476 30.252 3.07375 33.2504H2.99897L19.4915 55.7402ZM38.9827 61.7372C38.9827 60.088 30.2868 58.7389 19.4915 58.7389C8.69653 58.7389 0.000322741 60.088 0.000322741 61.7372C0.000322741 63.3865 8.69653 64.7356 19.4915 64.7356C30.2865 64.7356 38.9827 63.3865 38.9827 61.7372Z" fill="#DC2827"/>
<path d="M27.7379 23.1532L26.8819 19.9455C26.7761 19.4167 26.0307 18.8325 25.3662 18.8325H23.4778V18.1478C23.4778 17.8557 23.2361 17.614 22.9441 17.614H19.7766C19.4845 17.614 19.2428 17.8557 19.2428 18.1478V18.8325H17.3544C16.6897 18.8325 15.9445 19.4167 15.8387 19.9455L14.9827 23.1532C14.6504 23.2036 14.3432 23.3396 14.0863 23.5259L12.6008 22.4231C12.5455 22.3829 12.49 22.3576 12.4245 22.3527C12.7165 22.1311 12.9029 21.7837 12.9029 21.3909C12.9029 20.7212 12.3641 20.1824 11.6944 20.1824C11.0247 20.1824 10.4859 20.7212 10.4859 21.3909C10.4859 21.819 10.7124 22.1967 11.0498 22.4131C11.0196 22.4382 10.9894 22.4684 10.9643 22.4986H10.9592L10.7477 22.5641C10.5463 22.6246 10.4355 22.8411 10.4959 23.0426L10.7729 23.9339V25.5855C10.7729 25.6157 10.7729 25.6459 10.7779 25.671C10.7528 25.7112 10.7377 25.7616 10.7326 25.8121L10.7275 25.8674C10.7124 25.9027 10.7024 25.9378 10.6973 25.9782L10.6922 26.0637V26.0688L10.0528 26.0184C9.8362 26.0033 9.64494 26.1644 9.62984 26.3809L9.50391 27.947C9.48881 28.1636 9.64986 28.3548 9.86641 28.3699L10.385 28.4102L10.2491 29.3921C10.2189 29.6138 10.375 29.8201 10.5965 29.8503L10.7677 29.8754C10.9894 29.9056 11.1958 29.7495 11.2259 29.528L11.367 28.4908L12.374 28.5714L12.661 29.6439C12.7214 29.8605 12.9431 29.9864 13.1596 29.9309L13.3258 29.8856C13.5423 29.8252 13.6683 29.6035 13.6128 29.387L13.0688 27.3678L13.1241 26.6628C13.1392 26.4462 12.9782 26.2599 12.7666 26.2399L12.6759 25.8974C12.6659 25.8572 12.6508 25.8219 12.6306 25.7916C12.6457 25.7261 12.6557 25.6608 12.6557 25.5902V23.6918L13.4564 24.286C13.3205 24.5578 13.245 24.8701 13.245 25.1924V26.5319C13.245 27.6649 14.1716 28.5966 15.3097 28.5966H15.9543V29.4728C15.9543 29.9814 16.3723 30.3994 16.8809 30.3994H17.1428C17.6514 30.3994 18.0694 29.9814 18.0694 29.4728V28.5966H24.6562V29.4728C24.6562 29.9814 25.0742 30.3994 25.5828 30.3994H25.8447C26.3533 30.3994 26.7713 29.9814 26.7713 29.4728V28.5966H27.4159C28.5488 28.5966 29.4806 27.67 29.4806 26.5319V25.1924C29.4853 24.1655 28.725 23.3044 27.738 23.1532L27.7379 23.1532ZM17.0924 27.1616C16.4176 27.1616 15.8737 26.6177 15.8737 25.9429C15.8737 25.2682 16.4176 24.7243 17.0924 24.7243C17.7671 24.7243 18.311 25.2682 18.311 25.9429C18.311 26.6179 17.7673 27.1616 17.0924 27.1616ZM16.1255 23.1281L16.6945 20.4188C16.7801 19.9857 17.173 19.5175 18.0843 19.5175H24.646C25.5575 19.5175 25.9502 19.9857 26.0357 20.4188L26.6048 23.1281H25.4314L25.1695 22.7705C25.1493 22.7403 25.1091 22.7352 25.084 22.7554C25.0689 22.7654 25.0589 22.7856 25.0589 22.8007C24.9582 22.7001 24.8523 22.6195 24.7417 22.559C25.0639 22.3827 25.2856 22.0453 25.2856 21.6526C25.2856 21.4261 25.2152 21.2146 25.0893 21.0483C25.1044 21.0383 25.1195 21.0232 25.1346 21.0081C25.2001 20.9426 25.2454 20.8468 25.2454 20.7462C25.2454 20.5397 25.0792 20.3735 24.8727 20.3735C24.8727 20.3735 24.4094 20.2527 24.2533 20.2476C24.0871 20.2476 23.5936 20.3735 23.5936 20.3735C23.4929 20.3735 23.3972 20.4137 23.3317 20.4843C23.2662 20.5498 23.2209 20.6456 23.2209 20.7462C23.2209 20.8821 23.2964 21.003 23.4022 21.0634C23.2864 21.2295 23.2209 21.431 23.2209 21.6526C23.2209 22.0453 23.4425 22.3878 23.7648 22.559C23.6691 22.6094 23.5734 22.6799 23.4879 22.7605C23.4879 22.7454 23.4779 22.7252 23.4628 22.7152C23.4527 22.7052 23.4376 22.7052 23.4275 22.7052C23.4073 22.7052 23.3872 22.7152 23.377 22.7303L23.0799 23.1281L16.1255 23.1281ZM25.638 27.1616C24.9632 27.1616 24.4193 26.6177 24.4193 25.9429C24.4193 25.2682 24.9633 24.7243 25.638 24.7243C26.3127 24.7243 26.8567 25.2682 26.8567 25.9429C26.8565 26.6179 26.3077 27.1616 25.638 27.1616Z" fill="white"/>
<path d="M45.5496 17.614C48.8838 17.614 51.5993 19.9217 51.5993 23.0835C51.5993 23.81 51.3752 24.984 51.1142 25.6228L45.5628 36.3666L40.0115 25.6228C39.7522 24.9843 39.5264 23.8094 39.5264 23.0835C39.5264 19.9217 42.2155 17.614 45.5496 17.614ZM45.5629 20.7396C44.134 20.7396 42.9758 21.789 42.9758 23.0838C42.9758 24.3786 44.134 25.4281 45.5629 25.4281C46.9915 25.4281 48.15 24.3786 48.15 23.0838C48.15 21.789 46.9918 20.7396 45.5629 20.7396ZM43.7982 34.8041L44.6066 36.3667H36.0781C33.9133 36.3667 32.1978 37.9215 32.1978 39.8828C32.1978 41.8444 33.9136 43.3988 36.0781 43.3988H39.9584C43.5266 43.3988 46.4258 46.0259 46.4258 49.2591C46.4258 52.4923 43.5266 55.1193 39.9584 55.1193L19.4775 55.7359L20.9238 53.5567H39.9589C42.6013 53.5567 44.7018 51.6538 44.7018 49.2591C44.7018 46.8647 42.6017 44.9614 39.9589 44.9614H36.0786C32.9883 44.9614 30.4734 42.6826 30.4734 39.8824C30.4734 37.0823 32.9883 34.8034 36.0786 34.8034L43.7982 34.8041Z" fill="#DC2827"/>
</svg>
