<svg width="24" height="18" viewBox="0 0 24 18" fill="none" xmlns="http://www.w3.org/2000/svg">
<path d="M2.89455 0.929077C1.36434 0.929077 0.108154 2.15109 0.108154 3.62862V14.3713C0.108154 15.8488 1.36434 17.0708 2.89455 17.0708H20.2324C21.7626 17.0708 23.0188 15.8488 23.0188 14.3713V3.62862C23.0188 2.15109 21.7626 0.929077 20.2324 0.929077H2.89455ZM3.51381 2.72261H19.6034L11.554 9.03701L3.51381 2.72261ZM21.1613 3.81552V14.3713C21.1613 14.8913 20.7605 15.2773 20.2326 15.2773H2.89468C2.36659 15.2773 1.96593 14.8912 1.96593 14.3713V3.82528L10.9736 10.8873C11.3014 11.1441 11.8164 11.1441 12.1442 10.8873L21.1613 3.81552Z" fill="#C3C6CD"/>
</svg>
