<svg width="32" height="32" viewBox="0 0 32 32" fill="none" xmlns="http://www.w3.org/2000/svg">
<path d="M11.5939 3.65677C13.4772 1.63719 16.6411 1.52671 18.6607 3.40999L27.4369 11.594C29.4565 13.4773 29.567 16.6412 27.6837 18.6607L19.4997 27.437C17.6164 29.4566 14.4525 29.567 12.433 27.6838L3.65671 19.4998C1.63713 17.6165 1.52665 14.4526 3.40993 12.433L11.5939 3.65677Z" fill="#F9B233"/>
<path d="M11.816 20.832C13.1707 19.744 14.232 18.8533 15 18.16C15.768 17.456 16.4133 16.7253 16.936 15.968C17.4693 15.2 17.736 14.448 17.736 13.712C17.736 13.0187 17.5653 12.4747 17.224 12.08C16.8933 11.6747 16.3547 11.472 15.608 11.472C14.8827 11.472 14.3173 11.7013 13.912 12.16C13.5173 12.608 13.304 13.2107 13.272 13.968H11.864C11.9067 12.7733 12.2693 11.8507 12.952 11.2C13.6347 10.5493 14.5147 10.224 15.592 10.224C16.6907 10.224 17.56 10.528 18.2 11.136C18.8507 11.744 19.176 12.5813 19.176 13.648C19.176 14.5333 18.9093 15.3973 18.376 16.24C17.8533 17.072 17.256 17.808 16.584 18.448C15.912 19.0773 15.0533 19.8133 14.008 20.656H19.512V21.872H11.816V20.832Z" fill="white"/>
</svg>
