<svg width="64" height="65" viewBox="0 0 64 65" fill="none" xmlns="http://www.w3.org/2000/svg">
<g opacity="0.06">
<rect y="0.413086" width="64" height="64" rx="16" fill="#F9B233"/>
</g>
<path d="M27.0886 30.9481L32.6121 36.7766C33.2109 37.4085 34.2955 37.4987 35.5037 36.9033C38.5786 35.6284 39.6017 35.3176 40.1858 35.9339L46.535 42.6339C47.2855 43.4259 47.0852 44.745 46.246 45.6307C41.888 50.2293 34.8047 50.2293 30.4467 45.6307L18.5861 33.1149C14.25 28.5393 14.25 21.1367 18.5861 16.5611C19.4431 15.6568 20.7591 15.4343 21.5379 16.2561L27.8872 22.956C28.4375 23.5367 28.1424 24.6184 26.9409 27.8411C26.3823 29.0991 26.4718 30.2972 27.0886 30.9481Z" fill="#F9B233"/>
</svg>
