<svg width="8" height="14" viewBox="0 0 8 14" fill="none" xmlns="http://www.w3.org/2000/svg">
<path fill-rule="evenodd" clip-rule="evenodd" d="M7.61198 6.66071L1.82505 0.873882C1.6912 0.739932 1.51253 0.666138 1.32202 0.666138C1.13151 0.666138 0.952835 0.739932 0.818991 0.873882L0.392824 1.29994C0.115514 1.57757 0.115514 2.02879 0.392824 2.306L5.25225 7.16543L0.387432 12.0302C0.253587 12.1642 0.179688 12.3428 0.179688 12.5332C0.179688 12.7238 0.253587 12.9023 0.387432 13.0364L0.813599 13.4624C0.94755 13.5963 1.12611 13.6701 1.31663 13.6701C1.50714 13.6701 1.68581 13.5963 1.81965 13.4624L7.61198 7.67025C7.74614 7.53588 7.81983 7.35647 7.8194 7.16574C7.81983 6.97428 7.74614 6.79497 7.61198 6.66071V6.66071Z" fill="black"/>
</svg>
