<svg width="23" height="23" viewBox="0 0 23 23" fill="none" xmlns="http://www.w3.org/2000/svg">
<g clip-path="url(#clip0_13_26)">
<path d="M18.5811 10.9096C18.5811 11.5181 19.0761 12.0132 19.6846 12.0132C19.8718 12.0132 20.0482 11.9662 20.2028 11.8836L20.4985 12.1792C20.5614 12.2421 20.6439 12.2736 20.7263 12.2736C20.8088 12.2736 20.8913 12.2422 20.9542 12.1792C21.08 12.0534 21.08 11.8493 20.9542 11.7235L20.6586 11.4279C20.7411 11.2733 20.7881 11.0969 20.7881 10.9097C20.7881 10.3011 20.2931 9.80609 19.6846 9.80609C19.0761 9.80609 18.5811 10.3011 18.5811 10.9096ZM20.1437 10.9096C20.1437 11.0298 20.0969 11.1389 20.0211 11.2208C20.0166 11.2248 20.0121 11.2286 20.0078 11.2328C20.0036 11.2371 19.9998 11.2416 19.9958 11.2461C19.9139 11.3219 19.8048 11.3687 19.6846 11.3687C19.4315 11.3687 19.2256 11.1628 19.2256 10.9097C19.2256 10.6565 19.4315 10.4506 19.6846 10.4506C19.9378 10.4506 20.1437 10.6565 20.1437 10.9096Z" fill="white"/>
<path d="M22.1152 8.41669H21.2331C21.0551 8.41669 20.9108 8.56098 20.9108 8.73896C20.9108 8.91693 21.0551 9.06122 21.2331 9.06122H21.793V13.0178H19.3549C19.3539 13.0178 19.3529 13.0178 19.3519 13.0178H17.8364V9.06122H19.358C19.3584 9.06122 19.3587 9.06131 19.359 9.06131C19.3594 9.06131 19.3599 9.06122 19.3603 9.06122H19.7292C19.9072 9.06122 20.0514 8.91693 20.0514 8.73896C20.0514 8.56098 19.9072 8.41669 19.7292 8.41669H19.5972C19.0673 6.77065 18.0267 5.29273 16.6468 4.23484C15.1556 3.09162 13.3721 2.48163 11.4891 2.47072C11.4525 2.46986 11.4892 2.47072 11.386 2.47072C9.84993 2.47991 8.34564 2.90006 7.03548 3.68575C6.88286 3.77727 6.83331 3.97523 6.92484 4.12789C7.01636 4.28052 7.21427 4.33011 7.36698 4.23854C7.96928 3.87734 8.61609 3.59989 9.28885 3.411C8.64234 4.01837 8.08293 4.89832 7.65625 5.98608H5.33383C5.59822 5.66746 5.88757 5.36763 6.20197 5.09095C6.33561 4.97335 6.34858 4.76972 6.23102 4.63613C6.11346 4.50254 5.90979 4.48948 5.7762 4.60708C4.60942 5.63386 3.74932 6.94703 3.27761 8.41669H0.759766C0.581789 8.41669 0.4375 8.56098 0.4375 8.73896V13.3401C0.4375 13.518 0.581789 13.6623 0.759766 13.6623H3.27782C3.80771 15.3084 4.84833 16.7863 6.22823 17.8442C7.71941 18.9874 9.50287 19.5974 11.386 19.6083C11.4027 19.6084 11.411 19.6092 11.4891 19.6083C13.3721 19.5974 15.1556 18.9874 16.6468 17.8442C18.0267 16.7863 19.0673 15.3084 19.5972 13.6623H22.1152C22.2932 13.6623 22.4375 13.518 22.4375 13.3401V8.73896C22.4375 8.56098 22.2932 8.41669 22.1152 8.41669ZM17.5141 8.41669H15.8808C15.7718 7.78174 15.626 7.18405 15.4482 6.63057H18.019C18.3891 7.1788 18.6929 7.77757 18.9174 8.41669H17.5141ZM7.64873 8.41669C7.76402 7.77792 7.91943 7.17906 8.10841 6.63057H11.1152V8.41669H7.64873ZM11.7598 6.63061H14.7666C14.9556 7.17911 15.111 7.77796 15.2263 8.41674H11.7598V6.63061ZM11.7598 3.14138C12.8414 3.31793 13.8353 4.37617 14.5195 5.98608H11.7598V3.14138ZM17.5342 5.98608H15.2188C14.7939 4.90258 14.2374 4.02541 13.5945 3.41827C15.1375 3.85994 16.5136 4.76332 17.5342 5.98608ZM11.1152 3.14172V5.98608H8.35557C9.0395 4.37733 10.0329 3.31944 11.1152 3.14172ZM4.85189 6.63061H7.42688C7.24899 7.18405 7.10324 7.78179 6.99423 8.41674H3.95836C4.18008 7.78381 4.48039 7.1843 4.85189 6.63061ZM4.29867 13.0178H1.08203V9.06127H17.1919V13.0178H5.80258C5.6246 13.0178 5.48031 13.1621 5.48031 13.3401C5.48031 13.5181 5.6246 13.6624 5.80258 13.6624H6.99423C7.1032 14.2973 7.24899 14.895 7.42684 15.4485H4.85602C4.48589 14.9002 4.18205 14.3015 3.95763 13.6624H4.29863C4.47661 13.6624 4.62089 13.5181 4.62089 13.3401C4.62089 13.1621 4.47665 13.0178 4.29867 13.0178ZM11.1152 16.093V18.9377C10.0336 18.7611 9.03971 17.7029 8.35548 16.093H11.1152ZM8.10837 15.4484C7.91943 14.8999 7.76402 14.3011 7.64873 13.6623H11.1152V15.4484H8.10837ZM11.7598 18.9373V16.093H14.5194C13.8355 17.7017 12.8421 18.7596 11.7598 18.9373ZM11.7598 15.4484V13.6624H15.2263C15.111 14.3011 14.9556 14.9 14.7666 15.4485H11.7598V15.4484ZM5.34079 16.093H7.65616C8.08108 17.1765 8.63761 18.0536 9.28051 18.6608C7.73746 18.2191 6.36143 17.3157 5.34079 16.093ZM13.5934 18.6611C14.2368 18.0539 14.7937 17.1766 15.2188 16.093H17.5342C16.5134 17.316 15.1369 18.2195 13.5934 18.6611ZM18.0189 15.4484H15.4481C15.626 14.895 15.7718 14.2973 15.8808 13.6623H17.5141H18.9174C18.6929 14.3015 18.3891 14.9002 18.0189 15.4484Z" fill="white"/>
</g>
<defs>
<clipPath id="clip0_13_26">
<rect width="22" height="22" fill="white" transform="translate(0.4375 0.0397949)"/>
</clipPath>
</defs>
</svg>
