<svg width="64" height="65" viewBox="0 0 64 65" fill="none" xmlns="http://www.w3.org/2000/svg">
<g opacity="0.06">
<rect y="0.413086" width="64" height="64" rx="16" fill="#F9B233"/>
</g>
<path fill-rule="evenodd" clip-rule="evenodd" d="M22.5352 26.6036C29.6229 27.6038 35.1667 25.0204 39.0272 18.8881C39.0466 18.8574 39.0643 18.8259 39.0804 18.7937C40.5661 20.4655 41.4685 22.6672 41.4685 25.0797V28.5464C41.4685 32.05 39.5473 35.1998 36.5691 36.8407C36.1811 36.5711 35.7097 36.4131 35.2014 36.4131C33.8759 36.4131 32.8014 37.4876 32.8014 38.8131C32.8014 40.1385 33.8759 41.2131 35.2014 41.2131C35.8727 41.2131 36.4796 40.9375 36.9152 40.4932C36.2662 42.532 34.3117 44.0131 32.0014 44.0131C29.1633 44.0131 26.8621 41.7779 26.8586 39.0194L27.6174 36.9388C24.5352 35.3277 22.5352 32.1213 22.5352 28.5464V26.6036V26.6036ZM22.5527 24.4788C22.8627 19.5305 26.9742 15.613 32.0006 15.613C34.1192 15.613 36.0751 16.3089 37.6525 17.4846C37.604 17.5345 37.5595 17.5909 37.5199 17.6539C34.0454 23.1729 29.1346 25.4389 22.6458 24.4872C22.6146 24.4826 22.5835 24.4798 22.5527 24.4788H22.5527ZM24.8818 40.0666C25.4044 43.4327 28.3927 46.013 32.0008 46.013C35.6096 46.013 38.5984 43.4317 39.1201 40.0645L42.9563 40.8381C44.4802 41.1353 45.6944 42.2876 46.071 43.7939L47.1773 48.219C47.3035 48.7239 46.9216 49.213 46.4012 49.213H17.6012C17.0807 49.213 16.6988 48.7239 16.8251 48.219L17.9299 43.7996C18.3074 42.2897 19.5265 41.1358 21.0472 40.8433L24.8818 40.0666V40.0666Z" fill="#F9B233"/>
<path opacity="0.3" fill-rule="evenodd" clip-rule="evenodd" d="M35.2004 39.6131C35.6422 39.6131 36.0004 39.2549 36.0004 38.8131C36.0004 38.3712 35.6422 38.0131 35.2004 38.0131C34.7586 38.0131 34.4004 38.3712 34.4004 38.8131C34.4004 39.2549 34.7586 39.6131 35.2004 39.6131Z" fill="#F9B233"/>
<path opacity="0.3" fill-rule="evenodd" clip-rule="evenodd" d="M42.9708 23.613H43.2001C44.5256 23.613 45.6001 24.6876 45.6001 26.013V29.213C45.6001 30.5385 44.5256 31.613 43.2001 31.613H42.6348C42.9177 30.6313 43.0671 29.6008 43.0671 28.5464V25.0797C43.0671 24.5825 43.0343 24.0929 42.9708 23.613Z" fill="#F9B233"/>
<path opacity="0.3" fill-rule="evenodd" clip-rule="evenodd" d="M21.3665 31.613H20.8004C19.4749 31.613 18.4004 30.5385 18.4004 29.213V26.013C18.4004 24.6876 19.4749 23.613 20.8004 23.613H21.0305C20.9669 24.0929 20.9341 24.5825 20.9341 25.0797V28.5464C20.9341 29.6008 21.0836 30.6313 21.3665 31.613V31.613Z" fill="#F9B233"/>
</svg>
