<svg width="23" height="23" viewBox="0 0 23 23" fill="none" xmlns="http://www.w3.org/2000/svg">
<g clip-path="url(#clip0_2_119)">
<path d="M22.4375 4.21842C21.6194 4.5773 20.7476 4.81517 19.8387 4.93067C20.7738 4.37242 21.4874 3.49517 21.8229 2.43779C20.9511 2.95754 19.9886 3.32467 18.9629 3.52955C18.1351 2.64817 16.9554 2.10229 15.6684 2.10229C13.1714 2.10229 11.1611 4.12905 11.1611 6.61367C11.1611 6.97117 11.1914 7.31492 11.2656 7.64217C7.516 7.45929 4.19813 5.66217 1.96925 2.92454C1.58012 3.59967 1.35188 4.37242 1.35188 5.20429C1.35188 6.76629 2.15625 8.15092 3.35525 8.95254C2.63063 8.93879 1.91975 8.72842 1.3175 8.39705C1.3175 8.4108 1.3175 8.42867 1.3175 8.44654C1.3175 10.6383 2.88087 12.4588 4.931 12.8782C4.56387 12.9785 4.16375 13.0267 3.7485 13.0267C3.45975 13.0267 3.16825 13.0102 2.89462 12.9497C3.479 14.7358 5.13725 16.0489 7.109 16.0915C5.5745 17.2919 3.62613 18.0152 1.51688 18.0152C1.147 18.0152 0.79225 17.9987 0.4375 17.9533C2.43537 19.2417 4.80312 19.9773 7.3565 19.9773C15.656 19.9773 20.1935 13.1023 20.1935 7.14304C20.1935 6.94367 20.1866 6.75117 20.177 6.56005C21.0721 5.9248 21.8242 5.13142 22.4375 4.21842Z" fill="white"/>
</g>
<defs>
<clipPath id="clip0_2_119">
<rect width="22" height="22" fill="white" transform="translate(0.4375 0.0397949)"/>
</clipPath>
</defs>
</svg>
