<svg xmlns="http://www.w3.org/2000/svg" viewBox="0 0 263.36 219.8"><defs><style>.cls-1,.cls-5{fill:#fff;}.cls-2{fill:none;stroke:#fff;stroke-width:22.61px;}.cls-2,.cls-3,.cls-4,.cls-5{stroke-miterlimit:10;}.cls-3{fill:#004361;stroke-width:2.28px;}.cls-3,.cls-4,.cls-5{stroke:#004361;}.cls-4{fill:#36b0ff;}.cls-4,.cls-5{stroke-linecap:round;stroke-width:15.99px;}</style></defs><g id="Layer_2" data-name="Layer 2"><g id="Layer_2-2" data-name="Layer 2"><ellipse class="cls-1" cx="32.52" cy="106.72" rx="18.97" ry="19.53"/><ellipse class="cls-1" cx="230.54" cy="106.72" rx="18.97" ry="19.53"/><circle class="cls-2" cx="130.29" cy="109.9" r="98.59" transform="translate(-39.38 93.64) rotate(-34.67)"/><path class="cls-3" d="M76.47,161.21V76.58h13.8l1,8.23c4.6-6.66,12.59-9.56,19.37-9.56,18.4,0,30.63,13.68,30.63,31.23s-11,31.24-30.15,31.24c-6.29,0-15.61-1.94-19.85-8.47v28.53Zm50-54.73c0-9.32-6.29-17-17-17s-17,7.63-17,17a17,17,0,0,0,33.9,0Z"/><path class="cls-3" d="M173,55.18V76.7h16.47V89.41H172.84V115.2c0,5.69,3.15,8.48,7.75,8.48a16.87,16.87,0,0,0,7.14-1.82l4.12,12.59A32.89,32.89,0,0,1,179.62,137c-13,.49-21.43-6.9-21.43-21.79V89.41H147.05V76.7h11.14V58.42Z"/><circle class="cls-4" cx="32.85" cy="108.28" r="24.85"/><circle class="cls-5" cx="230.51" cy="108.28" r="24.85"/></g></g></svg>