<svg id="Image_Pasted_at_2022-3-9_16-36" data-name="Image Pasted at 2022-3-9 16-36" xmlns="http://www.w3.org/2000/svg" width="36" height="36" viewBox="0 0 36 36">
  <circle id="Ellipse_10" data-name="Ellipse 10" cx="18" cy="18" r="18" fill="#2b6060"/>
  <path id="Path_44003" data-name="Path 44003" d="M24.621,24.785H10.865a1.448,1.448,0,0,1-1.474-1.474V14.467a1.448,1.448,0,0,1,1.474-1.474h2.948a.56.56,0,0,0,.295-.147l.541-1.081a1.345,1.345,0,0,1,1.13-.688h3.931a1.346,1.346,0,0,1,1.13.688l.54,1.081a.35.35,0,0,0,.295.147h2.948A1.448,1.448,0,0,1,26.1,14.467v8.844A1.448,1.448,0,0,1,24.621,24.785ZM10.865,13.976a.464.464,0,0,0-.491.491v8.844a.464.464,0,0,0,.491.491H24.621a.464.464,0,0,0,.491-.491V14.467a.464.464,0,0,0-.491-.491H21.674a1.346,1.346,0,0,1-1.13-.688L20,12.207a.4.4,0,0,0-.295-.2H15.778a.561.561,0,0,0-.295.147l-.54,1.081a1.3,1.3,0,0,1-1.13.737Z" fill="#fff"/>
  <path id="Path_44004" data-name="Path 44004" d="M17.742,22.82A4.422,4.422,0,1,1,22.164,18.4,4.4,4.4,0,0,1,17.742,22.82Zm0-7.861A3.439,3.439,0,1,0,21.181,18.4,3.418,3.418,0,0,0,17.742,14.959Z" fill="#fff"/>
  <path id="Path_44005" data-name="Path 44005" d="M22.655,15.45a.491.491,0,1,0-.491-.491A.491.491,0,0,0,22.655,15.45Z" fill="#fff"/>
  <path id="Path_44006" data-name="Path 44006" d="M11.356,12.011h1.965V12.5H11.356Z" fill="#fff"/>
  <path id="Path_44007" data-name="Path 44007" d="M17.742,16.433v-.491A2.433,2.433,0,0,0,15.285,18.4h.491A1.971,1.971,0,0,1,17.742,16.433Z" fill="#fff"/>
</svg>
